<svg width="27.842773" height="27.842773" viewBox="0 0 27.8428 27.8428" fill="none" xmlns="http://www.w3.org/2000/svg" xmlns:xlink="http://www.w3.org/1999/xlink">
	<desc>
			Created with Pixso.
	</desc>
	<defs/>
	<path id="Vector" d="M6.96 0C10.8 0 13.92 3.11 13.92 6.96L13.92 0L20.88 0C24.72 0 27.84 3.11 27.84 6.96C27.84 10.8 24.72 13.92 20.88 13.92C24.72 13.92 27.84 17.03 27.84 20.88C27.84 22.79 27.07 24.52 25.83 25.77L25.8 25.8L25.78 25.82C24.52 27.07 22.79 27.84 20.88 27.84C18.98 27.84 17.26 27.08 16 25.85C15.99 25.83 15.97 25.82 15.96 25.8C15.94 25.78 15.92 25.77 15.91 25.75C14.68 24.5 13.92 22.78 13.92 20.88C13.92 24.72 10.8 27.84 6.96 27.84C3.11 27.84 0 24.72 0 20.88L0 13.92L6.96 13.92C3.11 13.92 0 10.8 0 6.96C0 3.11 3.11 0 6.96 0ZM12.52 6.96C12.52 10.03 10.03 12.52 6.96 12.52L6.96 1.39C10.03 1.39 12.52 3.88 12.52 6.96ZM26.45 20.88C26.45 17.8 23.95 15.31 20.88 15.31C17.8 15.31 15.31 17.8 15.31 20.88L26.45 20.88ZM1.39 15.31L1.39 20.88C1.39 23.95 3.88 26.45 6.96 26.45C10.03 26.45 12.52 23.95 12.52 20.88L12.52 15.31L1.39 15.31ZM15.31 12.52L15.31 1.39L20.88 1.39C23.95 1.39 26.45 3.88 26.45 6.96C26.45 10.03 23.95 12.52 20.88 12.52L15.31 12.52Z" fill="#263238" fill-opacity="1.000000" fill-rule="evenodd"/>
</svg>
