<svg width="27.842773" height="19.489868" viewBox="0 0 27.8428 19.4899" fill="none" xmlns="http://www.w3.org/2000/svg" xmlns:xlink="http://www.w3.org/1999/xlink">
	<desc>
			Created with Pixso.
	</desc>
	<defs/>
	<path id="Vector" d="M6.95 2.86L0 9.74C1.39 11.12 2.97 12.28 4.71 13.18C5.18 14.44 5.93 15.62 6.96 16.63C10.8 20.44 17.03 20.44 20.88 16.63C21.9 15.62 22.65 14.44 23.13 13.18C24.86 12.28 26.45 11.12 27.84 9.74L20.89 2.86C20.89 2.86 20.88 2.85 20.88 2.85C17.03 -0.96 10.8 -0.96 6.96 2.85C6.95 2.85 6.95 2.86 6.95 2.86ZM20.21 14.43C18.19 15.1 16.06 15.45 13.92 15.45C11.77 15.45 9.65 15.1 7.62 14.43C7.84 14.71 8.08 14.99 8.35 15.25C11.42 18.3 16.41 18.3 19.49 15.25C19.75 14.99 19.99 14.71 20.21 14.43ZM8.49 4.09C9.01 4.43 9.57 4.72 10.15 4.96C11.34 5.45 12.62 5.7 13.92 5.7C15.21 5.7 16.49 5.45 17.68 4.96C18.26 4.72 18.82 4.43 19.34 4.09C16.31 1.23 11.53 1.23 8.49 4.09Z" fill="#3B4158" fill-opacity="1.000000" fill-rule="evenodd"/>
</svg>
