<svg width="28.538818" height="18.793823" viewBox="0 0 28.5388 18.7938" fill="none" xmlns="http://www.w3.org/2000/svg" xmlns:xlink="http://www.w3.org/1999/xlink">
	<desc>
			Created with Pixso.
	</desc>
	<defs/>
	<path id="Vector" d="M9.51 18.79L12.4 18.79L11.56 17.96C11.33 17.74 11.03 17.61 10.71 17.61L9.51 17.61C4.91 17.61 1.18 13.93 1.18 9.39C1.18 4.85 4.91 1.17 9.51 1.17L19.02 1.17C23.62 1.17 27.34 4.85 27.34 9.39C27.34 13.93 23.62 17.61 19.02 17.61L15.46 17.61C14.99 17.61 14.54 17.43 14.2 17.1L13.22 16.13C12.66 15.57 11.9 15.27 11.11 15.27L9.51 15.27C6.22 15.27 3.56 12.64 3.56 9.39C3.56 6.15 6.22 3.52 9.51 3.52L19.02 3.52C22.3 3.52 24.97 6.15 24.97 9.39C24.97 12.64 22.3 15.27 19.02 15.27L16.74 15.27C16.26 15.27 15.81 15.08 15.47 14.75L14.49 13.78C13.93 13.23 13.18 12.92 12.39 12.92L9.51 12.92C7.54 12.92 5.94 11.34 5.94 9.39C5.94 7.45 7.54 5.87 9.51 5.87L19.02 5.87C20.99 5.87 22.59 7.45 22.59 9.39C22.59 11.31 21.03 12.88 19.09 12.92L19.09 12.92L18.22 12.92C17.75 12.92 17.3 12.73 16.96 12.4L15.98 11.43C15.52 10.97 14.93 10.69 14.29 10.6L14.26 10.57L9.51 10.57C8.85 10.57 8.32 10.04 8.32 9.39C8.32 8.74 8.85 8.22 9.51 8.22L19.02 8.22C19.68 8.22 20.21 8.74 20.21 9.39C20.21 10.04 19.68 10.57 19.02 10.57L16.64 10.57L17.48 11.4C17.71 11.62 18.01 11.74 18.32 11.74L19.02 11.74C20.33 11.74 21.4 10.69 21.4 9.39C21.4 8.09 20.33 7.04 19.02 7.04L9.51 7.04C8.19 7.04 7.13 8.09 7.13 9.39C7.13 10.69 8.19 11.74 9.51 11.74L13.87 11.74C14.35 11.74 14.8 11.93 15.14 12.26L16.12 13.23C16.68 13.78 17.43 14.09 18.22 14.09L19.32 14.09L19.32 14.08C21.81 13.93 23.78 11.89 23.78 9.39C23.78 6.8 21.65 4.69 19.02 4.69L9.51 4.69C6.88 4.69 4.75 6.8 4.75 9.39C4.75 11.99 6.88 14.09 9.51 14.09L12.39 14.09C12.86 14.09 13.31 14.28 13.65 14.61L14.63 15.58C15.19 16.13 15.95 16.44 16.74 16.44L19.02 16.44C22.96 16.44 26.16 13.28 26.16 9.39C26.16 5.5 22.96 2.34 19.02 2.34L9.51 2.34C5.57 2.34 2.37 5.5 2.37 9.39C2.37 13.28 5.57 16.44 9.51 16.44L11.11 16.44C11.59 16.44 12.04 16.63 12.38 16.96L13.36 17.93C13.92 18.48 14.67 18.79 15.46 18.79L19.02 18.79C24.27 18.79 28.53 14.58 28.53 9.39C28.53 4.2 24.27 0 19.02 0L9.51 0C4.25 0 0 4.2 0 9.39C0 14.58 4.25 18.79 9.51 18.79Z" fill="#212326" fill-opacity="1.000000" fill-rule="nonzero"/>
</svg>
