<svg width="36.195618" height="13.921387" viewBox="0 0 36.1956 13.9214" fill="none" xmlns="http://www.w3.org/2000/svg" xmlns:xlink="http://www.w3.org/1999/xlink">
	<desc>
			Created with Pixso.
	</desc>
	<defs/>
	<path id="Vector" d="M8.59 0C7.17 0 5.82 0.56 4.82 1.56L1.56 4.82C0.56 5.82 0 7.17 0 8.59C0 11.53 2.38 13.92 5.32 13.92C6.74 13.92 8.09 13.35 9.09 12.36L11.35 10.1L17.92 3.52C18.4 3.05 19.05 2.78 19.72 2.78C20.85 2.78 21.81 3.52 22.14 4.54L24.22 2.46C23.27 0.98 21.61 0 19.72 0C18.31 0 16.95 0.56 15.96 1.56L7.12 10.39C6.65 10.86 6 11.13 5.32 11.13C3.92 11.13 2.78 9.99 2.78 8.59C2.78 7.91 3.05 7.26 3.52 6.79L6.79 3.52C7.26 3.05 7.91 2.78 8.59 2.78C9.72 2.78 10.68 3.52 11.01 4.54L13.08 2.46C12.14 0.98 10.48 0 8.59 0Z" fill="#394149" fill-opacity="1.000000" fill-rule="nonzero"/>
	<path id="Vector" d="M18.26 10.39C17.78 10.86 17.14 11.13 16.46 11.13C15.33 11.13 14.37 10.4 14.04 9.38L11.97 11.45C12.91 12.93 14.57 13.92 16.46 13.92C17.88 13.92 19.23 13.35 20.23 12.36L29.06 3.52C29.54 3.05 30.19 2.78 30.86 2.78C32.27 2.78 33.41 3.92 33.41 5.32C33.41 6 33.14 6.65 32.66 7.12L29.4 10.39C28.92 10.86 28.27 11.13 27.6 11.13C26.47 11.13 25.51 10.4 25.18 9.38L23.1 11.45C24.05 12.93 25.71 13.92 27.6 13.92C29.01 13.92 30.37 13.35 31.37 12.36L34.63 9.09C35.63 8.09 36.19 6.74 36.19 5.32C36.19 2.38 33.8 0 30.86 0C29.45 0 28.09 0.56 27.09 1.56L18.26 10.39Z" fill="#394149" fill-opacity="1.000000" fill-rule="nonzero"/>
</svg>
