<svg width="29.234863" height="22.970291" viewBox="0 0 29.2349 22.9703" fill="none" xmlns="http://www.w3.org/2000/svg" xmlns:xlink="http://www.w3.org/1999/xlink">
	<desc>
			Created with Pixso.
	</desc>
	<defs/>
	<path id="Vector" d="M0 4.69C0 3.45 0.49 2.25 1.37 1.37C2.25 0.49 3.45 0 4.69 0L24.53 0C25.78 0 26.97 0.49 27.85 1.37C28.73 2.25 29.23 3.45 29.23 4.69L29.23 18.27C29.23 19.51 28.73 20.71 27.85 21.59C26.97 22.47 25.78 22.97 24.53 22.97L4.69 22.97C3.45 22.97 2.25 22.47 1.37 21.59C0.49 20.71 0 19.51 0 18.27L0 4.69ZM4.69 2.08C4 2.08 3.34 2.36 2.85 2.85C2.36 3.34 2.08 4 2.08 4.69L2.08 6.26L27.14 6.26L27.14 4.69C27.14 4 26.87 3.34 26.38 2.85C25.89 2.36 25.22 2.08 24.53 2.08L4.69 2.08ZM2.08 18.27C2.08 18.96 2.36 19.62 2.85 20.11C3.34 20.6 4 20.88 4.69 20.88L24.53 20.88C25.22 20.88 25.89 20.6 26.38 20.11C26.87 19.62 27.14 18.96 27.14 18.27L27.14 8.35L2.08 8.35L2.08 18.27ZM19.83 14.61L22.97 14.61C23.24 14.61 23.51 14.72 23.7 14.92C23.9 15.11 24.01 15.38 24.01 15.66C24.01 15.93 23.9 16.2 23.7 16.39C23.51 16.59 23.24 16.7 22.97 16.7L19.83 16.7C19.56 16.7 19.29 16.59 19.09 16.39C18.9 16.2 18.79 15.93 18.79 15.66C18.79 15.38 18.9 15.11 19.09 14.92C19.29 14.72 19.56 14.61 19.83 14.61Z" fill="#4CAF4F" fill-opacity="1.000000" fill-rule="nonzero"/>
	<path id="Vector" d="M0 4.69C0 3.45 0.49 2.25 1.37 1.37C2.25 0.49 3.45 0 4.69 0L24.53 0C25.78 0 26.97 0.49 27.85 1.37C28.73 2.25 29.23 3.45 29.23 4.69L29.23 18.27C29.23 19.51 28.73 20.71 27.85 21.59C26.97 22.47 25.78 22.97 24.53 22.97L4.69 22.97C3.45 22.97 2.25 22.47 1.37 21.59C0.49 20.71 0 19.51 0 18.27L0 4.69ZM0.98 3.16C1.18 2.69 1.47 2.25 1.86 1.86C2.25 1.47 2.69 1.18 3.16 0.98C3.63 0.79 4.14 0.69 4.69 0.69L24.53 0.69C25.08 0.69 25.6 0.79 26.07 0.98C26.54 1.18 26.97 1.47 27.36 1.86C27.75 2.25 28.05 2.69 28.24 3.16C28.44 3.63 28.53 4.14 28.53 4.69L28.53 18.27C28.53 18.82 28.44 19.33 28.24 19.8C28.05 20.28 27.75 20.71 27.36 21.1C26.97 21.49 26.54 21.78 26.07 21.98C25.6 22.17 25.08 22.27 24.53 22.27L4.69 22.27C4.14 22.27 3.63 22.17 3.16 21.98C2.69 21.78 2.25 21.49 1.86 21.1C1.47 20.71 1.18 20.28 0.98 19.8C0.79 19.33 0.69 18.82 0.69 18.27L0.69 4.69C0.69 4.14 0.79 3.63 0.98 3.16ZM3.42 1.63C3.03 1.79 2.68 2.03 2.36 2.36C2.03 2.68 1.79 3.03 1.63 3.42C1.47 3.81 1.39 4.24 1.39 4.69L1.39 6.96L27.84 6.96L27.84 4.69C27.84 4.24 27.76 3.81 27.6 3.42C27.43 3.03 27.19 2.68 26.87 2.36C26.55 2.03 26.19 1.79 25.8 1.63C25.41 1.47 24.99 1.39 24.53 1.39L4.69 1.39C4.24 1.39 3.81 1.47 3.42 1.63ZM4.69 2.08C4 2.08 3.34 2.36 2.85 2.85C2.36 3.34 2.08 4 2.08 4.69L2.08 6.26L27.14 6.26L27.14 4.69C27.14 4 26.87 3.34 26.38 2.85C25.89 2.36 25.22 2.08 24.53 2.08L4.69 2.08ZM1.63 19.54C1.79 19.93 2.03 20.28 2.36 20.6C2.68 20.93 3.03 21.17 3.42 21.33C3.81 21.49 4.24 21.57 4.69 21.57L24.53 21.57C24.99 21.57 25.41 21.49 25.8 21.33C26.19 21.17 26.55 20.93 26.87 20.6C27.19 20.28 27.43 19.93 27.6 19.54C27.76 19.15 27.84 18.72 27.84 18.27L27.84 7.65L1.39 7.65L1.39 18.27C1.39 18.72 1.47 19.15 1.63 19.54ZM27.14 9.04L27.14 18.27C27.14 18.96 26.87 19.62 26.38 20.11C25.89 20.6 25.22 20.88 24.53 20.88L4.69 20.88C4 20.88 3.34 20.6 2.85 20.11C2.36 19.62 2.08 18.96 2.08 18.27L2.08 8.35L27.14 8.35L27.14 9.04ZM19.83 14.61L22.97 14.61C23.24 14.61 23.51 14.72 23.7 14.92C23.9 15.11 24.01 15.38 24.01 15.66C24.01 15.93 23.9 16.2 23.7 16.39C23.51 16.59 23.24 16.7 22.97 16.7L19.83 16.7C19.56 16.7 19.29 16.59 19.09 16.39C18.9 16.2 18.79 15.93 18.79 15.66C18.79 15.38 18.9 15.11 19.09 14.92C19.29 14.72 19.56 14.61 19.83 14.61ZM19.83 15.31L22.97 15.31C23.01 15.31 23.06 15.32 23.1 15.33C23.14 15.35 23.18 15.38 23.21 15.41C23.25 15.44 23.27 15.48 23.29 15.52C23.3 15.56 23.31 15.61 23.31 15.66C23.31 15.7 23.3 15.75 23.29 15.79C23.27 15.83 23.25 15.87 23.21 15.9C23.18 15.94 23.14 15.96 23.1 15.98C23.06 16 23.01 16 22.97 16L19.83 16C19.78 16 19.74 16 19.7 15.98C19.66 15.96 19.62 15.94 19.59 15.9C19.55 15.87 19.53 15.83 19.51 15.79C19.49 15.75 19.49 15.7 19.49 15.66C19.49 15.61 19.49 15.56 19.51 15.52C19.53 15.48 19.55 15.44 19.59 15.41C19.62 15.38 19.66 15.35 19.7 15.33C19.74 15.32 19.78 15.31 19.83 15.31Z" fill="#4CAF4F" fill-opacity="1.000000" fill-rule="evenodd"/>
</svg>
