<svg width="24.765869" height="21.030212" viewBox="0 0 24.7659 21.0302" fill="none" xmlns="http://www.w3.org/2000/svg" xmlns:xlink="http://www.w3.org/1999/xlink">
	<desc>
			Created with Pixso.
	</desc>
	<defs/>
	<path id="Vector" d="M0 20.63C0 20.85 0.17 21.03 0.39 21.03L24.37 21.03C24.58 21.03 24.76 20.85 24.76 20.63C24.76 20.41 24.58 20.24 24.37 20.24L23.64 20.24L23.64 8.93C23.64 8.72 23.46 8.54 23.25 8.54L16.82 8.54L16.82 0.39C16.82 0.25 16.74 0.12 16.63 0.05C16.51 -0.02 16.36 -0.02 16.24 0.04L8.93 3.84C8.8 3.91 8.72 4.05 8.72 4.19L8.72 11.31L1.65 11.31C1.43 11.31 1.25 11.49 1.25 11.71L1.25 20.24L0.39 20.24C0.17 20.24 0 20.41 0 20.63L0 20.63ZM16.82 14.5L22.85 14.5L22.85 20.24L16.82 20.24L16.82 14.5ZM16.82 11.77L22.85 11.77L22.85 13.72L16.82 13.72L16.82 11.77ZM16.82 9.33L22.85 9.33L22.85 10.98L16.82 10.98L16.82 9.33ZM9.51 4.43L16.03 1.04L16.03 20.24L9.51 20.24L9.51 4.43ZM3.99 17.09C3.99 16.28 4.64 15.61 5.43 15.61C6.23 15.61 6.87 16.28 6.87 17.09L6.87 20.24L3.99 20.24L3.99 17.09ZM2.04 12.1L8.72 12.1L8.72 20.24L7.66 20.24L7.66 17.09C7.66 15.84 6.66 14.82 5.43 14.82C4.2 14.82 3.2 15.84 3.2 17.09L3.2 20.24L2.04 20.24L2.04 12.1Z" fill="#103E13" fill-opacity="1.000000" fill-rule="nonzero"/>
</svg>

