<svg width="32.562866" height="21.659790" viewBox="0 0 32.5629 21.6598" fill="none" xmlns="http://www.w3.org/2000/svg" xmlns:xlink="http://www.w3.org/1999/xlink">
	<desc>
			Created with Pixso.
	</desc>
	<defs/>
	<path id="Vector" d="M16.33 14.74C17.64 13.64 18.58 12.16 19.03 10.5C19.47 8.85 19.39 7.1 18.8 5.49C18.22 3.88 17.15 2.49 15.74 1.5C14.34 0.52 12.67 0 10.96 0C9.24 0 7.57 0.52 6.17 1.5C4.76 2.49 3.7 3.88 3.11 5.49C2.52 7.1 2.44 8.85 2.89 10.5C3.33 12.16 4.27 13.64 5.58 14.74C3.45 15.7 1.62 17.22 0.28 19.12C0.04 19.46 -0.05 19.88 0.02 20.29C0.09 20.7 0.32 21.07 0.66 21.3C0.92 21.49 1.24 21.59 1.56 21.59C1.81 21.59 2.06 21.53 2.28 21.42C2.5 21.3 2.69 21.13 2.84 20.93C3.75 19.62 4.97 18.56 6.38 17.82C7.79 17.09 9.36 16.71 10.96 16.71C12.55 16.71 14.12 17.09 15.53 17.82C16.94 18.56 18.16 19.62 19.07 20.93C19.19 21.11 19.34 21.26 19.51 21.38C19.69 21.5 19.88 21.58 20.09 21.62C20.3 21.67 20.51 21.66 20.72 21.62C20.93 21.58 21.13 21.49 21.3 21.37C21.47 21.25 21.62 21.09 21.73 20.91C21.84 20.73 21.91 20.53 21.95 20.32C21.98 20.11 21.97 19.89 21.91 19.69C21.86 19.48 21.76 19.29 21.63 19.12C20.29 17.22 18.46 15.7 16.33 14.74ZM5.73 8.36C5.73 7.33 6.04 6.32 6.61 5.46C7.19 4.6 8 3.93 8.96 3.53C9.91 3.14 10.96 3.04 11.97 3.24C12.99 3.44 13.92 3.94 14.65 4.67C15.38 5.4 15.87 6.33 16.08 7.34C16.28 8.35 16.17 9.4 15.78 10.36C15.38 11.31 14.71 12.12 13.86 12.7C13 13.27 11.99 13.58 10.96 13.58C9.57 13.58 8.24 13.03 7.26 12.05C6.28 11.07 5.73 9.74 5.73 8.36ZM31.89 21.3C31.63 21.49 31.31 21.59 30.99 21.59C30.74 21.59 30.49 21.53 30.27 21.41C30.05 21.3 29.86 21.13 29.71 20.93C28.79 19.62 27.58 18.56 26.16 17.83C24.75 17.1 23.18 16.71 21.59 16.71C21.18 16.71 20.78 16.55 20.48 16.25C20.19 15.96 20.03 15.56 20.03 15.14C20.03 14.73 20.19 14.33 20.48 14.04C20.78 13.74 21.18 13.58 21.59 13.58C22.98 13.58 24.3 13.03 25.28 12.05C26.26 11.07 26.81 9.74 26.81 8.36C26.81 6.97 26.26 5.65 25.28 4.67C24.3 3.69 22.98 3.14 21.59 3.14C21.12 3.14 20.64 3.2 20.18 3.33C19.98 3.39 19.77 3.41 19.57 3.39C19.36 3.37 19.16 3.3 18.98 3.2C18.8 3.1 18.64 2.97 18.51 2.81C18.38 2.64 18.28 2.46 18.23 2.26C18.17 2.06 18.16 1.85 18.18 1.64C18.21 1.43 18.27 1.24 18.37 1.06C18.48 0.88 18.62 0.72 18.78 0.59C18.95 0.46 19.13 0.37 19.33 0.32C20.07 0.11 20.83 0 21.59 0C23.31 0 24.98 0.52 26.39 1.5C27.79 2.48 28.86 3.88 29.45 5.49C30.04 7.1 30.12 8.85 29.67 10.5C29.23 12.16 28.28 13.64 26.97 14.74C29.1 15.7 30.93 17.22 32.27 19.12C32.39 19.29 32.47 19.48 32.52 19.68C32.56 19.88 32.57 20.09 32.54 20.29C32.5 20.5 32.42 20.69 32.31 20.86C32.2 21.04 32.06 21.19 31.89 21.3Z" fill="#4CAF4F" fill-opacity="1.000000" fill-rule="nonzero"/>
	<path id="Vector" d="M16.89 14.23C17.91 13.2 18.65 11.91 19.03 10.5C19.47 8.85 19.39 7.1 18.8 5.49C18.22 3.88 17.15 2.49 15.74 1.5C14.34 0.52 12.67 0 10.96 0C9.24 0 7.57 0.52 6.17 1.5C4.76 2.49 3.7 3.88 3.11 5.49C2.52 7.1 2.44 8.85 2.89 10.5C3.26 11.91 4 13.2 5.02 14.23C5.2 14.41 5.39 14.58 5.58 14.74C5.35 14.84 5.12 14.95 4.9 15.07C3.06 16.03 1.48 17.42 0.28 19.12C0.04 19.46 -0.05 19.88 0.02 20.29C0.09 20.7 0.32 21.07 0.66 21.3C0.92 21.49 1.24 21.59 1.56 21.59C1.81 21.59 2.06 21.53 2.28 21.42C2.5 21.3 2.69 21.13 2.84 20.93C3.75 19.62 4.97 18.56 6.38 17.82C7.79 17.09 9.36 16.71 10.96 16.71C12.55 16.71 14.12 17.09 15.53 17.82C16.94 18.56 18.16 19.62 19.07 20.93C19.19 21.11 19.34 21.26 19.51 21.38C19.69 21.5 19.88 21.58 20.09 21.62C20.3 21.67 20.51 21.66 20.72 21.62C20.93 21.58 21.13 21.49 21.3 21.37C21.47 21.25 21.62 21.09 21.73 20.91C21.84 20.73 21.91 20.53 21.95 20.32C21.98 20.11 21.97 19.89 21.91 19.69C21.86 19.48 21.76 19.29 21.63 19.12C20.43 17.42 18.85 16.03 17.01 15.07C16.79 14.95 16.56 14.84 16.33 14.74C16.53 14.58 16.71 14.41 16.89 14.23ZM27.65 15.07C27.43 14.95 27.2 14.84 26.97 14.74C27.16 14.58 27.35 14.41 27.52 14.23C28.55 13.2 29.29 11.92 29.67 10.5C30.12 8.85 30.04 7.1 29.45 5.49C28.86 3.88 27.79 2.48 26.39 1.5C24.98 0.52 23.31 0 21.59 0C20.83 0 20.07 0.11 19.33 0.32C19.13 0.37 18.95 0.46 18.78 0.59C18.62 0.72 18.48 0.88 18.37 1.06C18.27 1.24 18.21 1.43 18.18 1.64C18.16 1.85 18.17 2.06 18.23 2.26C18.28 2.46 18.38 2.64 18.51 2.81C18.64 2.97 18.8 3.1 18.98 3.2C19.16 3.3 19.36 3.37 19.57 3.39C19.77 3.41 19.98 3.39 20.18 3.33C20.64 3.2 21.12 3.14 21.59 3.14C22.98 3.14 24.3 3.69 25.28 4.67C26.26 5.65 26.81 6.97 26.81 8.36C26.81 9.74 26.26 11.07 25.28 12.05C24.3 13.03 22.98 13.58 21.59 13.58C21.18 13.58 20.78 13.74 20.48 14.04C20.19 14.33 20.03 14.73 20.03 15.14C20.03 15.56 20.19 15.96 20.48 16.25C20.78 16.55 21.18 16.71 21.59 16.71C23.18 16.71 24.75 17.1 26.16 17.83C27.58 18.56 28.79 19.62 29.71 20.93C29.86 21.13 30.05 21.3 30.27 21.41C30.49 21.53 30.74 21.59 30.99 21.59C31.31 21.59 31.63 21.49 31.89 21.3C32.06 21.19 32.2 21.04 32.31 20.86C32.42 20.69 32.5 20.5 32.54 20.29C32.57 20.09 32.56 19.88 32.52 19.68C32.47 19.48 32.39 19.29 32.27 19.12C31.07 17.42 29.49 16.03 27.65 15.07ZM18.61 8.01C18.65 8.77 18.56 9.55 18.35 10.32C18.15 11.1 17.84 11.81 17.42 12.46C17.01 13.11 16.5 13.69 15.88 14.21L15.04 14.92L16.05 15.37C17.07 15.84 18 16.42 18.84 17.11C19.67 17.8 20.41 18.61 21.06 19.53L21.07 19.54L21.08 19.55C21.12 19.6 21.15 19.65 21.18 19.7C21.2 19.75 21.22 19.81 21.24 19.87C21.25 19.92 21.26 19.98 21.27 20.04C21.27 20.1 21.27 20.16 21.26 20.22C21.25 20.28 21.23 20.33 21.21 20.39C21.19 20.44 21.17 20.49 21.14 20.55C21.11 20.6 21.07 20.64 21.03 20.68C20.99 20.73 20.95 20.77 20.9 20.8C20.85 20.83 20.8 20.86 20.74 20.89C20.69 20.91 20.64 20.93 20.58 20.94C20.52 20.95 20.46 20.96 20.4 20.96C20.34 20.96 20.29 20.95 20.23 20.94C20.17 20.93 20.11 20.91 20.06 20.89C20 20.87 19.95 20.84 19.9 20.81C19.86 20.77 19.81 20.73 19.77 20.69C19.73 20.65 19.69 20.6 19.66 20.55L19.65 20.54L19.64 20.53C19.15 19.82 18.58 19.19 17.95 18.63C17.32 18.08 16.62 17.61 15.85 17.21C15.08 16.81 14.29 16.51 13.48 16.31C12.66 16.11 11.82 16.01 10.96 16.01C10.09 16.01 9.25 16.11 8.43 16.31C7.62 16.51 6.83 16.81 6.06 17.21C5.3 17.6 4.61 18.07 3.98 18.62C3.34 19.18 2.77 19.81 2.27 20.53C2.23 20.59 2.18 20.64 2.13 20.68C2.08 20.73 2.02 20.77 1.96 20.8C1.91 20.83 1.85 20.85 1.8 20.86C1.72 20.88 1.64 20.9 1.56 20.9C1.47 20.9 1.39 20.88 1.32 20.86C1.23 20.84 1.14 20.79 1.06 20.74C0.96 20.67 0.88 20.59 0.82 20.49C0.76 20.4 0.72 20.29 0.7 20.17C0.68 20.06 0.69 19.94 0.71 19.83C0.73 19.73 0.78 19.62 0.85 19.53C1.5 18.61 2.24 17.8 3.07 17.11C3.91 16.42 4.84 15.84 5.87 15.37L6.87 14.92L6.03 14.21C5.41 13.69 4.9 13.11 4.49 12.46C4.07 11.81 3.77 11.1 3.56 10.32C3.35 9.55 3.26 8.77 3.3 8.01C3.33 7.24 3.49 6.48 3.76 5.72C4.04 4.97 4.41 4.29 4.88 3.68C5.34 3.07 5.91 2.54 6.57 2.07C7.22 1.61 7.92 1.27 8.65 1.04C9.38 0.81 10.15 0.69 10.96 0.69C11.76 0.69 12.53 0.81 13.26 1.04C13.99 1.27 14.69 1.61 15.35 2.07C16 2.54 16.57 3.07 17.03 3.68C17.5 4.29 17.87 4.97 18.15 5.72C18.42 6.48 18.58 7.24 18.61 8.01ZM30.99 20.9L30.99 20.9C30.92 20.9 30.85 20.89 30.79 20.87C30.72 20.85 30.65 20.83 30.59 20.8C30.53 20.76 30.47 20.72 30.42 20.68C30.37 20.63 30.32 20.58 30.28 20.52C29.78 19.82 29.22 19.2 28.6 18.65C27.96 18.09 27.26 17.61 26.49 17.21C25.72 16.81 24.93 16.51 24.11 16.32C23.3 16.12 22.46 16.02 21.59 16.01C21.47 16.01 21.36 15.99 21.26 15.95C21.15 15.91 21.06 15.84 20.98 15.76C20.89 15.67 20.83 15.58 20.79 15.48C20.74 15.38 20.72 15.26 20.72 15.14C20.72 15.02 20.74 14.91 20.79 14.81C20.83 14.71 20.89 14.61 20.98 14.53C21.06 14.44 21.16 14.38 21.26 14.34C21.36 14.3 21.47 14.27 21.59 14.27C22.41 14.27 23.17 14.13 23.86 13.84C24.56 13.55 25.2 13.12 25.78 12.54C26.35 11.96 26.79 11.33 27.08 10.63C27.36 9.93 27.51 9.17 27.51 8.36C27.51 7.54 27.36 6.78 27.08 6.09C26.79 5.39 26.35 4.75 25.78 4.17C25.2 3.6 24.56 3.16 23.86 2.87C23.17 2.59 22.41 2.44 21.59 2.44C21.33 2.44 21.07 2.46 20.82 2.49C20.54 2.53 20.26 2.59 19.99 2.66C19.9 2.69 19.81 2.7 19.71 2.7C19.69 2.7 19.67 2.7 19.64 2.7C19.58 2.69 19.53 2.68 19.47 2.66C19.42 2.64 19.37 2.62 19.32 2.59C19.26 2.57 19.22 2.53 19.17 2.5C19.13 2.46 19.09 2.42 19.05 2.37C19.02 2.33 18.99 2.28 18.96 2.23C18.93 2.18 18.91 2.12 18.9 2.07C18.88 2.01 18.87 1.96 18.87 1.9C18.86 1.84 18.86 1.78 18.87 1.73C18.88 1.67 18.89 1.61 18.91 1.56C18.93 1.5 18.95 1.45 18.98 1.4C19.01 1.35 19.04 1.3 19.08 1.26C19.12 1.22 19.16 1.18 19.2 1.14C19.25 1.11 19.3 1.08 19.35 1.05C19.4 1.03 19.46 1.01 19.51 0.99C19.96 0.86 20.42 0.78 20.87 0.73C21.11 0.71 21.35 0.7 21.59 0.7C22.4 0.7 23.18 0.81 23.92 1.05C24.64 1.27 25.33 1.62 25.99 2.07C26.65 2.54 27.21 3.07 27.68 3.68C28.15 4.29 28.52 4.97 28.8 5.72C29.07 6.48 29.23 7.24 29.26 8.01C29.3 8.77 29.21 9.55 29 10.32C28.79 11.1 28.48 11.81 28.07 12.46C27.65 13.11 27.14 13.69 26.52 14.21L25.67 14.92L26.68 15.37C27.71 15.84 28.64 16.42 29.47 17.11C30.31 17.8 31.05 18.61 31.7 19.53C31.75 19.59 31.78 19.66 31.81 19.74C31.82 19.77 31.83 19.8 31.84 19.84C31.85 19.89 31.86 19.95 31.86 20.01C31.86 20.06 31.86 20.12 31.85 20.17C31.84 20.23 31.82 20.29 31.8 20.34C31.78 20.39 31.76 20.44 31.73 20.49C31.7 20.54 31.66 20.58 31.62 20.62C31.58 20.66 31.54 20.7 31.49 20.73C31.4 20.8 31.31 20.84 31.2 20.87C31.14 20.89 31.07 20.9 30.99 20.9ZM7.2 3.78C6.76 4.14 6.37 4.57 6.04 5.07C5.7 5.57 5.45 6.09 5.29 6.64C5.12 7.19 5.04 7.76 5.04 8.36C5.04 9.17 5.18 9.93 5.47 10.63C5.76 11.33 6.19 11.96 6.77 12.54C7.35 13.12 7.99 13.55 8.68 13.84C9.38 14.13 10.14 14.27 10.96 14.27C11.55 14.27 12.13 14.19 12.67 14.02C13.22 13.86 13.75 13.61 14.24 13.28C14.74 12.94 15.17 12.56 15.53 12.11C15.9 11.67 16.19 11.17 16.42 10.62C16.65 10.07 16.79 9.51 16.85 8.94C16.91 8.37 16.88 7.79 16.76 7.2C16.64 6.62 16.45 6.07 16.18 5.57C15.91 5.06 15.56 4.6 15.14 4.17C14.72 3.75 14.25 3.4 13.75 3.13C13.24 2.86 12.7 2.67 12.11 2.55C11.52 2.44 10.94 2.41 10.38 2.46C9.81 2.52 9.24 2.66 8.69 2.89C8.14 3.12 7.64 3.42 7.2 3.78ZM5.73 8.36C5.73 7.33 6.04 6.32 6.61 5.46C7.19 4.6 8 3.93 8.96 3.53C9.91 3.14 10.96 3.04 11.97 3.24C12.99 3.44 13.92 3.94 14.65 4.67C15.38 5.4 15.87 6.33 16.08 7.34C16.28 8.35 16.17 9.4 15.78 10.36C15.38 11.31 14.71 12.12 13.86 12.7C13 13.27 11.99 13.58 10.96 13.58C9.57 13.58 8.24 13.03 7.26 12.05C6.28 11.07 5.73 9.74 5.73 8.36Z" fill="#4CAF4F" fill-opacity="1.000000" fill-rule="evenodd"/>
</svg>
