<svg width="22.274170" height="22.274170" viewBox="0 0 22.2742 22.2742" fill="none" xmlns="http://www.w3.org/2000/svg" xmlns:xlink="http://www.w3.org/1999/xlink">
	<desc>
			Created with Pixso.
	</desc>
	<defs/>
	<g opacity="0.100000">
		<path id="BG" d="M0 11.13C0 4.98 4.98 0 11.13 0C17.28 0 22.27 4.98 22.27 11.13C22.27 17.28 17.28 22.27 11.13 22.27C4.98 22.27 0 17.28 0 11.13Z" fill="#FFFFFF" fill-opacity="1.000000" fill-rule="evenodd"/>
	</g>
	<path id="Path" d="M11.13 5.19C9.52 5.19 9.32 5.2 8.68 5.23C8.05 5.26 7.62 5.36 7.24 5.5C6.85 5.66 6.52 5.86 6.19 6.19C5.86 6.52 5.66 6.85 5.5 7.24C5.36 7.62 5.26 8.05 5.23 8.68C5.2 9.32 5.19 9.52 5.19 11.13C5.19 12.75 5.2 12.95 5.23 13.58C5.26 14.21 5.36 14.64 5.5 15.02C5.66 15.41 5.86 15.74 6.19 16.07C6.52 16.41 6.85 16.61 7.24 16.76C7.62 16.91 8.05 17.01 8.68 17.04C9.32 17.06 9.52 17.07 11.13 17.07C12.75 17.07 12.95 17.06 13.58 17.04C14.21 17.01 14.65 16.91 15.02 16.76C15.41 16.61 15.74 16.41 16.07 16.07C16.41 15.74 16.61 15.41 16.76 15.02C16.91 14.64 17.01 14.21 17.04 13.58C17.06 12.95 17.07 12.75 17.07 11.13C17.07 9.52 17.06 9.32 17.04 8.68C17.01 8.05 16.91 7.62 16.76 7.24C16.61 6.85 16.41 6.52 16.07 6.19C15.74 5.86 15.41 5.66 15.02 5.5C14.64 5.36 14.21 5.26 13.58 5.23C12.95 5.2 12.74 5.19 11.13 5.19L11.13 5.19ZM10.6 6.26C10.76 6.26 10.93 6.26 11.13 6.26C12.72 6.26 12.91 6.27 13.53 6.3C14.11 6.32 14.43 6.42 14.64 6.5C14.91 6.61 15.11 6.74 15.32 6.95C15.53 7.15 15.65 7.35 15.76 7.63C15.84 7.84 15.94 8.15 15.97 8.73C16 9.36 16 9.55 16 11.13C16 12.72 16 12.9 15.97 13.53C15.94 14.11 15.84 14.42 15.76 14.63C15.66 14.91 15.53 15.11 15.32 15.32C15.11 15.52 14.91 15.65 14.64 15.76C14.43 15.84 14.11 15.94 13.53 15.96C12.91 15.99 12.72 16 11.13 16C9.55 16 9.36 15.99 8.73 15.96C8.15 15.94 7.84 15.84 7.63 15.76C7.35 15.65 7.15 15.52 6.95 15.31C6.74 15.11 6.61 14.91 6.5 14.63C6.42 14.42 6.32 14.11 6.3 13.53C6.27 12.9 6.26 12.72 6.26 11.13C6.26 9.54 6.27 9.36 6.3 8.73C6.32 8.15 6.42 7.84 6.5 7.63C6.61 7.35 6.74 7.15 6.95 6.94C7.15 6.74 7.35 6.61 7.63 6.5C7.84 6.42 8.15 6.32 8.73 6.29C9.28 6.27 9.49 6.26 10.6 6.26L10.6 6.26ZM14.3 7.25C13.91 7.25 13.59 7.57 13.59 7.96C13.59 8.35 13.91 8.67 14.3 8.67C14.7 8.67 15.02 8.35 15.02 7.96C15.02 7.57 14.7 7.25 14.3 7.25ZM11.13 8.08C9.45 8.08 8.08 9.45 8.08 11.13C8.08 12.82 9.45 14.18 11.13 14.18C12.82 14.18 14.18 12.82 14.18 11.13C14.18 9.45 12.82 8.08 11.13 8.08ZM11.13 9.15C12.23 9.15 13.11 10.04 13.11 11.13C13.11 12.23 12.23 13.11 11.13 13.11C10.04 13.11 9.15 12.23 9.15 11.13C9.15 10.04 10.04 9.15 11.13 9.15Z" fill="#FFFFFF" fill-opacity="1.000000" fill-rule="evenodd"/>
</svg>
