<svg width="22.274170" height="22.274170" viewBox="0 0 22.2742 22.2742" fill="none" xmlns="http://www.w3.org/2000/svg" xmlns:xlink="http://www.w3.org/1999/xlink">
	<desc>
			Created with Pixso.
	</desc>
	<defs/>
	<g opacity="0.100000">
		<path id="BG" d="M0 11.13C0 4.98 4.98 0 11.13 0C17.28 0 22.27 4.98 22.27 11.13C22.27 17.28 17.28 22.27 11.13 22.27C4.98 22.27 0 17.28 0 11.13Z" fill="#FFFFFF" fill-opacity="1.000000" fill-rule="evenodd"/>
	</g>
	<path id="Path" d="M15.77 7.3C16.28 7.44 16.69 7.86 16.82 8.38C17.07 9.33 17.07 11.32 17.07 11.32C17.07 11.32 17.07 13.3 16.82 14.25C16.69 14.78 16.28 15.19 15.77 15.33C14.85 15.59 11.13 15.59 11.13 15.59C11.13 15.59 7.42 15.59 6.49 15.33C5.98 15.19 5.58 14.78 5.44 14.25C5.19 13.3 5.19 11.32 5.19 11.32C5.19 11.32 5.19 9.33 5.44 8.38C5.58 7.86 5.98 7.44 6.49 7.3C7.42 7.05 11.13 7.05 11.13 7.05C11.13 7.05 14.85 7.05 15.77 7.3ZM10.02 9.65L10.02 13.36L12.99 11.5L10.02 9.65Z" fill="#FFFFFF" fill-opacity="1.000000" fill-rule="evenodd"/>
</svg>
