<svg width="22.274170" height="22.274170" viewBox="0 0 22.2742 22.2742" fill="none" xmlns="http://www.w3.org/2000/svg" xmlns:xlink="http://www.w3.org/1999/xlink">
	<desc>
			Created with Pixso.
	</desc>
	<defs/>
	<g opacity="0.100000">
		<path id="BG" d="M0 11.13C0 4.98 4.98 0 11.13 0C17.28 0 22.27 4.98 22.27 11.13C22.27 17.28 17.28 22.27 11.13 22.27C4.98 22.27 0 17.28 0 11.13Z" fill="#FFFFFF" fill-opacity="1.000000" fill-rule="evenodd"/>
	</g>
	<path id="Path" d="M10.8 9.05L10.82 9.43L10.43 9.39C9.01 9.2 7.78 8.59 6.72 7.56L6.21 7.05L6.08 7.43C5.8 8.27 5.98 9.16 6.56 9.76C6.87 10.09 6.8 10.13 6.26 9.94C6.08 9.87 5.91 9.83 5.9 9.85C5.84 9.9 6.03 10.62 6.18 10.9C6.38 11.3 6.79 11.68 7.25 11.91L7.63 12.09L7.18 12.1C6.74 12.1 6.72 12.11 6.77 12.27C6.93 12.78 7.54 13.33 8.23 13.56L8.71 13.73L8.29 13.98C7.67 14.34 6.93 14.54 6.2 14.56C5.85 14.57 5.56 14.6 5.56 14.62C5.56 14.7 6.51 15.14 7.07 15.32C8.73 15.83 10.7 15.61 12.18 14.73C13.23 14.11 14.28 12.88 14.77 11.68C15.04 11.04 15.3 9.88 15.3 9.32C15.3 8.96 15.32 8.91 15.76 8.48C16.02 8.23 16.26 7.95 16.31 7.88C16.38 7.73 16.38 7.73 15.98 7.86C15.32 8.1 15.22 8.06 15.55 7.71C15.79 7.46 16.08 7 16.08 6.87C16.08 6.85 15.96 6.88 15.83 6.96C15.69 7.03 15.38 7.15 15.15 7.22L14.72 7.36L14.34 7.1C14.13 6.96 13.84 6.8 13.68 6.75C13.28 6.64 12.68 6.66 12.32 6.78C11.34 7.14 10.73 8.05 10.8 9.05Z" fill="#FFFFFF" fill-opacity="1.000000" fill-rule="evenodd"/>
</svg>
