<svg width="22.274170" height="22.274170" viewBox="0 0 22.2742 22.2742" fill="none" xmlns="http://www.w3.org/2000/svg" xmlns:xlink="http://www.w3.org/1999/xlink">
	<desc>
			Created with Pixso.
	</desc>
	<defs/>
	<g opacity="0.100000">
		<path id="BG" d="M0 11.13C0 4.98 4.98 0 11.13 0C17.28 0 22.27 4.98 22.27 11.13C22.27 17.28 17.28 22.27 11.13 22.27C4.98 22.27 0 17.28 0 11.13Z" fill="#FFFFFF" fill-opacity="1.000000" fill-rule="evenodd"/>
	</g>
	<path id="Path" d="M17.07 11.12C17.07 11.53 17.03 11.93 16.95 12.32C16.87 12.7 16.76 13.07 16.6 13.43C16.46 13.78 16.27 14.12 16.06 14.44C15.84 14.75 15.6 15.05 15.33 15.32C15.06 15.59 14.77 15.83 14.45 16.04C14.14 16.26 13.8 16.44 13.44 16.59C13.09 16.74 12.71 16.86 12.33 16.93C11.94 17.01 11.53 17.06 11.13 17.06C10.73 17.06 10.33 17.01 9.94 16.93C9.55 16.86 9.18 16.74 8.82 16.59C8.47 16.44 8.13 16.26 7.81 16.04C7.5 15.83 7.2 15.59 6.93 15.32C6.66 15.05 6.42 14.75 6.21 14.44C5.99 14.12 5.81 13.78 5.66 13.43C5.51 13.07 5.39 12.7 5.31 12.32C5.23 11.93 5.19 11.53 5.19 11.12C5.19 10.72 5.23 10.32 5.31 9.93C5.39 9.55 5.51 9.17 5.66 8.81C5.81 8.46 5.99 8.12 6.21 7.81C6.42 7.49 6.66 7.2 6.93 6.93C7.2 6.66 7.5 6.42 7.81 6.21C8.13 5.99 8.47 5.81 8.82 5.66C9.18 5.51 9.55 5.39 9.94 5.31C10.33 5.23 10.73 5.19 11.13 5.19C11.53 5.19 11.94 5.23 12.33 5.31C12.71 5.39 13.09 5.51 13.44 5.66C13.8 5.81 14.14 5.99 14.45 6.21C14.77 6.42 15.06 6.66 15.33 6.93C15.6 7.2 15.84 7.49 16.06 7.81C16.27 8.12 16.46 8.46 16.6 8.81C16.76 9.17 16.87 9.55 16.95 9.93C17.03 10.32 17.07 10.72 17.07 11.12ZM8.97 6.54C7.55 7.21 6.5 8.51 6.17 10.08C6.3 10.08 8.42 10.11 10.85 9.46C9.97 7.9 9.04 6.63 8.97 6.54ZM11.27 10.24C8.66 11.02 6.15 10.97 6.06 10.96C6.06 11.02 6.06 11.07 6.06 11.12C6.06 12.43 6.55 13.61 7.36 14.51C7.36 14.51 8.75 12.05 11.48 11.16C11.55 11.14 11.62 11.12 11.68 11.1C11.56 10.81 11.42 10.53 11.27 10.24ZM14.48 7.32C13.59 6.54 12.42 6.06 11.13 6.06C10.72 6.06 10.32 6.11 9.94 6.2C10.01 6.3 10.97 7.56 11.83 9.16C13.75 8.44 14.47 7.34 14.48 7.32ZM12.03 11.94C12.02 11.94 12.01 11.95 12 11.95C9 12.99 8.02 15.09 8.01 15.12C8.88 15.79 9.96 16.19 11.13 16.19C11.83 16.19 12.5 16.05 13.11 15.79C13.04 15.34 12.74 13.79 12.03 11.94ZM13.97 15.32C15.11 14.56 15.91 13.34 16.14 11.93C16.04 11.89 14.62 11.44 12.98 11.71C13.64 13.53 13.91 15.02 13.97 15.32ZM12.22 9.91C12.34 10.15 12.46 10.4 12.56 10.64C12.6 10.73 12.63 10.82 12.67 10.91C14.41 10.69 16.13 11.06 16.2 11.07C16.19 9.87 15.76 8.77 15.05 7.91C15.04 7.92 14.23 9.09 12.22 9.91Z" fill="#FFFFFF" fill-opacity="1.000000" fill-rule="evenodd"/>
</svg>
