<svg width="33.393921" height="18.798035" viewBox="0 0 33.3939 18.798" fill="none" xmlns="http://www.w3.org/2000/svg" xmlns:xlink="http://www.w3.org/1999/xlink">
	<desc>
			Created with Pixso.
	</desc>
	<defs/>
	<path id="Vector" d="M16.69 0C14.21 0 12.18 2.04 12.18 4.53C12.18 6.11 13 7.51 14.22 8.32C12.74 8.81 11.46 9.74 10.52 10.95C10 10.55 9.42 10.23 8.8 10C9.75 9.29 10.37 8.16 10.37 6.89C10.37 4.78 8.65 3.04 6.55 3.04C4.44 3.04 2.73 4.78 2.73 6.89C2.73 8.16 3.35 9.3 4.3 10C1.79 10.93 0 13.35 0 16.21L0 18.21C0 18.37 0.06 18.51 0.16 18.62C0.27 18.73 0.42 18.79 0.57 18.79L9.37 18.79C9.4 18.79 9.42 18.79 9.44 18.79L23.95 18.79C23.97 18.79 23.99 18.79 24.01 18.79L32.82 18.79C33.13 18.79 33.39 18.53 33.39 18.21L33.39 16.21C33.39 13.35 31.6 10.93 29.09 10C30.04 9.3 30.66 8.16 30.66 6.89C30.66 4.78 28.94 3.04 26.84 3.04C24.74 3.04 23.02 4.78 23.02 6.89C23.02 8.16 23.64 9.29 24.59 10C23.96 10.23 23.38 10.55 22.86 10.95C21.93 9.74 20.65 8.81 19.17 8.32C20.39 7.51 21.2 6.11 21.2 4.53C21.2 2.04 19.18 0 16.69 0L16.69 0ZM16.69 1.15C18.55 1.15 20.05 2.66 20.05 4.53C20.05 6.4 18.58 7.89 16.74 7.92C16.72 7.92 16.71 7.91 16.69 7.91C16.68 7.91 16.66 7.92 16.65 7.92C14.81 7.89 13.34 6.4 13.34 4.53C13.34 2.66 14.83 1.15 16.69 1.15L16.69 1.15ZM6.55 4.19C8.02 4.19 9.21 5.39 9.21 6.89C9.21 8.38 8.04 9.58 6.58 9.59C6.57 9.59 6.56 9.59 6.55 9.59C6.54 9.59 6.53 9.59 6.52 9.59C5.06 9.58 3.88 8.38 3.88 6.89C3.88 5.39 5.07 4.19 6.55 4.19L6.55 4.19ZM26.84 4.19C28.31 4.19 29.5 5.39 29.5 6.89C29.5 8.38 28.33 9.58 26.87 9.59C26.86 9.59 26.85 9.59 26.84 9.59C26.83 9.59 26.82 9.59 26.81 9.59C25.35 9.58 24.17 8.38 24.17 6.89C24.17 5.39 25.36 4.19 26.84 4.19L26.84 4.19ZM16.65 9.07C16.66 9.07 16.68 9.07 16.69 9.07C16.71 9.07 16.72 9.07 16.74 9.07C20.42 9.09 23.38 12.07 23.38 15.79L23.38 17.64L10.01 17.64L10.01 15.79C10.01 12.07 12.96 9.09 16.65 9.07L16.65 9.07ZM6.5 10.75C6.52 10.75 6.53 10.75 6.55 10.75C6.56 10.75 6.58 10.75 6.59 10.75C7.84 10.76 8.98 11.19 9.88 11.91C9.24 13.05 8.86 14.38 8.86 15.79L8.86 17.64L1.15 17.64L1.15 16.21C1.15 13.18 3.53 10.77 6.5 10.75L6.5 10.75ZM26.8 10.75C26.81 10.75 26.82 10.75 26.84 10.75C26.85 10.75 26.87 10.75 26.88 10.75C29.86 10.77 32.24 13.18 32.24 16.21L32.24 17.64L24.52 17.64L24.52 15.79C24.52 14.38 24.15 13.05 23.5 11.91C24.41 11.19 25.55 10.76 26.8 10.75L26.8 10.75Z" fill="#103E13" fill-opacity="1.000000" fill-rule="nonzero"/>
</svg>
