<svg width="22.533325" height="20.882141" viewBox="0 0 22.5333 20.8821" fill="none" xmlns="http://www.w3.org/2000/svg" xmlns:xlink="http://www.w3.org/1999/xlink">
	<desc>
			Created with Pixso.
	</desc>
	<defs/>
	<path id="Vector" d="M14.16 10.19C13.99 10.19 13.83 10.14 13.69 10.07L13.69 10.07C13.69 10.33 13.59 10.58 13.41 10.77C13.22 10.95 12.97 11.06 12.71 11.06C12.54 11.06 12.38 11.01 12.24 10.93C12.23 11.17 12.13 11.4 11.96 11.57C11.77 11.76 11.53 11.86 11.26 11.86C10.74 11.86 10.31 11.45 10.28 10.93C10.12 11.02 9.94 11.07 9.75 11.05C9.23 11.02 8.83 10.57 8.83 10.04L8.83 5.61L8.32 6.48C8.13 6.82 7.77 7.02 7.39 7.02C7.2 7.02 7.01 6.98 6.85 6.88C6.64 6.76 6.49 6.57 6.43 6.34C6.37 6.11 6.4 5.87 6.52 5.67C6.52 5.67 8.17 2.81 8.27 2.63C8.28 2.61 8.32 2.53 8.35 2.46C8.38 2.4 8.4 2.34 8.42 2.27C8.92 0.87 10.15 0 11.64 0C13.57 0 15.14 1.7 15.14 3.79L15.14 9.2C15.14 9.47 15.04 9.71 14.85 9.9C14.67 10.09 14.42 10.19 14.16 10.19L14.16 10.19ZM11.64 0.52C10.36 0.52 9.34 1.24 8.92 2.45C8.89 2.53 8.86 2.6 8.83 2.68C8.73 2.89 8.73 2.89 8.7 2.92L8.7 2.92C8.56 3.18 8.16 3.87 6.97 5.93C6.93 6.01 6.91 6.11 6.94 6.21C6.96 6.3 7.02 6.38 7.11 6.43C7.37 6.58 7.72 6.48 7.87 6.22L8.86 4.5C8.92 4.4 9.04 4.35 9.16 4.38C9.27 4.41 9.35 4.51 9.35 4.63L9.35 10.04C9.35 10.3 9.55 10.52 9.78 10.53C9.92 10.54 10.05 10.49 10.14 10.4C10.23 10.31 10.28 10.19 10.28 10.07L10.28 6.53C10.28 6.39 10.39 6.27 10.54 6.27C10.68 6.27 10.8 6.39 10.8 6.53L10.8 10.87C10.8 11.13 11.01 11.34 11.26 11.34C11.39 11.34 11.5 11.29 11.59 11.2C11.68 11.11 11.72 11 11.72 10.87L11.72 6.53C11.72 6.39 11.84 6.27 11.99 6.27C12.13 6.27 12.25 6.39 12.25 6.53L12.25 10.03L12.25 10.07C12.25 10.33 12.45 10.53 12.71 10.53C12.83 10.53 12.95 10.48 13.04 10.4C13.12 10.31 13.17 10.19 13.17 10.07L13.17 6.53C13.17 6.39 13.29 6.27 13.43 6.27C13.58 6.27 13.69 6.39 13.69 6.53L13.69 9.2C13.69 9.46 13.9 9.67 14.16 9.67C14.28 9.67 14.4 9.62 14.48 9.53C14.57 9.44 14.62 9.33 14.62 9.2L14.62 3.79C14.62 1.99 13.28 0.52 11.64 0.52L11.64 0.52Z" fill="#4CAF4F" fill-opacity="1.000000" fill-rule="nonzero"/>
	<path id="Vector" d="M14.62 10.07C14.48 10.15 14.32 10.19 14.16 10.19L14.16 10.19L14.16 10.19L14.16 10.19C14.13 10.19 14.11 10.19 14.09 10.19C13.95 10.18 13.82 10.13 13.69 10.07L13.69 10.07C13.69 10.21 13.66 10.35 13.61 10.48C13.56 10.59 13.49 10.68 13.41 10.77C13.36 10.81 13.31 10.85 13.26 10.89C13.2 10.93 13.15 10.96 13.09 10.98C12.97 11.03 12.84 11.06 12.71 11.06C12.69 11.06 12.66 11.05 12.64 11.05C12.5 11.04 12.36 11 12.24 10.93C12.24 11 12.23 11.06 12.21 11.12C12.2 11.19 12.17 11.27 12.13 11.33C12.09 11.42 12.03 11.5 11.96 11.57C11.92 11.61 11.88 11.64 11.84 11.68C11.67 11.8 11.47 11.86 11.26 11.86C11.04 11.86 10.84 11.79 10.68 11.67C10.56 11.58 10.46 11.47 10.39 11.33C10.33 11.21 10.29 11.08 10.28 10.93C10.16 11 10.02 11.04 9.88 11.05C9.84 11.06 9.79 11.06 9.75 11.05C9.64 11.05 9.54 11.02 9.44 10.98C9.08 10.83 8.83 10.46 8.83 10.04L8.83 5.61L8.43 6.31L8.32 6.48C8.22 6.66 8.08 6.8 7.9 6.89C7.75 6.98 7.57 7.02 7.39 7.02C7.2 7.02 7.01 6.98 6.85 6.88C6.64 6.76 6.49 6.57 6.43 6.34C6.37 6.11 6.4 5.87 6.52 5.67C6.52 5.67 8.17 2.81 8.27 2.63C8.28 2.62 8.29 2.6 8.3 2.57C8.31 2.54 8.33 2.5 8.35 2.46C8.38 2.4 8.4 2.34 8.42 2.27C8.5 2.07 8.58 1.87 8.69 1.69C9.29 0.63 10.37 0 11.64 0C12.01 0 12.37 0.06 12.7 0.17C14.12 0.66 15.14 2.1 15.14 3.79L15.14 9.2C15.14 9.22 15.14 9.24 15.14 9.26C15.13 9.5 15.02 9.73 14.85 9.9C14.78 9.97 14.71 10.03 14.62 10.07ZM14.61 9.26C14.6 9.36 14.56 9.46 14.48 9.53C14.4 9.62 14.28 9.67 14.16 9.67L14.16 9.67C14.14 9.67 14.12 9.66 14.1 9.66C13.87 9.63 13.69 9.44 13.69 9.2L13.69 9.13L13.69 9.02L13.69 7.15L13.69 6.53C13.69 6.52 13.69 6.5 13.69 6.48C13.66 6.36 13.56 6.27 13.43 6.27C13.3 6.27 13.2 6.37 13.17 6.49C13.17 6.5 13.17 6.52 13.17 6.53L13.17 10.07C13.17 10.11 13.17 10.14 13.16 10.17C13.14 10.26 13.1 10.33 13.04 10.4C12.95 10.48 12.83 10.53 12.71 10.53C12.69 10.53 12.67 10.53 12.65 10.53C12.49 10.51 12.35 10.4 12.28 10.25C12.26 10.19 12.25 10.13 12.25 10.07L12.25 10.03L12.25 10L12.25 9.88L12.25 7.15L12.25 6.53C12.25 6.52 12.25 6.5 12.24 6.49C12.22 6.37 12.11 6.27 11.99 6.27C11.86 6.27 11.75 6.36 11.73 6.49C11.72 6.5 11.72 6.52 11.72 6.53L11.72 10.87C11.72 10.93 11.72 10.98 11.7 11.02C11.69 11.06 11.67 11.09 11.66 11.12C11.64 11.15 11.61 11.18 11.59 11.2C11.5 11.29 11.39 11.34 11.26 11.34C11.06 11.34 10.89 11.21 10.83 11.03C10.81 10.98 10.8 10.93 10.8 10.87L10.8 10.8L10.8 9.6L10.8 7.15L10.8 6.53C10.8 6.52 10.8 6.5 10.8 6.49C10.77 6.36 10.67 6.27 10.54 6.27C10.41 6.27 10.3 6.36 10.28 6.48C10.28 6.5 10.28 6.52 10.28 6.53L10.28 10.07C10.28 10.19 10.23 10.31 10.14 10.4C10.07 10.47 9.97 10.52 9.87 10.53C9.84 10.53 9.81 10.53 9.78 10.53C9.55 10.52 9.35 10.3 9.35 10.04L9.35 4.63C9.35 4.51 9.27 4.41 9.16 4.38C9.06 4.35 8.95 4.39 8.89 4.47C8.88 4.48 8.87 4.49 8.86 4.5L8.56 5.03L8.43 5.26L8.23 5.61L7.9 6.17L7.87 6.22C7.86 6.24 7.84 6.27 7.83 6.29C7.66 6.49 7.34 6.56 7.11 6.43C7.02 6.38 6.96 6.3 6.94 6.21C6.91 6.11 6.93 6.01 6.97 5.93C7.02 5.85 7.06 5.78 7.11 5.7C7.55 4.93 7.88 4.37 8.12 3.95C8.16 3.88 8.2 3.81 8.23 3.75C8.5 3.29 8.63 3.05 8.7 2.92L8.7 2.92L8.7 2.92L8.71 2.92C8.73 2.89 8.74 2.87 8.83 2.68C8.86 2.6 8.89 2.53 8.92 2.45C8.97 2.3 9.03 2.17 9.09 2.04C9.43 1.39 9.96 0.92 10.62 0.69C10.94 0.58 11.28 0.52 11.64 0.52L11.64 0.52L11.64 0.52C11.96 0.52 12.27 0.57 12.56 0.68C13.75 1.11 14.62 2.34 14.62 3.79L14.62 6.42L14.62 9.13L14.62 9.2C14.62 9.22 14.62 9.24 14.61 9.26Z" fill="#4CAF4F" fill-opacity="1.000000" fill-rule="evenodd"/>
	<path id="Vector" d="M3.87 13.95L7.67 11.67C8.12 11.39 8.71 11.51 9.01 11.94C9.12 12.09 9.17 12.27 9.18 12.45C9.32 12.38 9.47 12.34 9.63 12.34C9.71 12.34 9.79 12.35 9.87 12.37C10.13 12.43 10.34 12.59 10.48 12.82C10.61 13.05 10.65 13.31 10.59 13.57C10.53 13.8 10.39 14 10.19 14.14C10.33 14.22 10.45 14.33 10.53 14.47C10.67 14.7 10.71 14.96 10.64 15.22C10.58 15.47 10.42 15.69 10.19 15.83L10.19 15.83C10.33 15.91 10.45 16.02 10.53 16.16C10.67 16.39 10.71 16.65 10.64 16.91C10.58 17.16 10.42 17.38 10.2 17.51L5.55 20.3C4.69 20.82 3.69 21 2.74 20.8C1.78 20.6 0.98 20.05 0.5 19.25C-0.27 17.97 -0.15 16.47 0.8 15.32C0.84 15.26 0.88 15.21 0.92 15.15C0.96 15.1 1.01 15.03 1.03 15C1.13 14.83 2.73 11.94 2.73 11.94C2.89 11.65 3.19 11.48 3.51 11.48C3.65 11.48 3.8 11.52 3.94 11.59C4.1 11.69 4.24 11.82 4.34 11.98C4.54 12.32 4.54 12.73 4.36 13.07L3.87 13.95ZM3.89 12.25C3.84 12.17 3.77 12.1 3.68 12.05C3.51 11.95 3.28 12.02 3.19 12.19C2.04 14.26 1.65 14.96 1.5 15.21L1.5 15.22C1.49 15.26 1.49 15.26 1.35 15.46C1.3 15.52 1.25 15.59 1.2 15.65C0.38 16.64 0.29 17.88 0.95 18.98C1.35 19.66 2.03 20.12 2.84 20.29C3.66 20.46 4.53 20.3 5.29 19.85L9.93 17.06C10.03 17 10.11 16.9 10.14 16.78C10.17 16.66 10.15 16.54 10.08 16.43C9.95 16.21 9.67 16.14 9.45 16.27L7.16 17.65C7.04 17.72 6.88 17.68 6.8 17.56C6.73 17.43 6.77 17.27 6.89 17.2L9.18 15.82L9.93 15.38C10.03 15.31 10.11 15.21 10.14 15.09C10.17 14.97 10.15 14.85 10.08 14.74C9.95 14.53 9.67 14.45 9.45 14.58L6.42 16.4C6.29 16.48 6.13 16.44 6.06 16.31C5.98 16.19 6.02 16.03 6.15 15.96L9.87 13.72C9.98 13.66 10.05 13.56 10.08 13.44C10.11 13.32 10.09 13.19 10.03 13.09C9.97 12.98 9.86 12.91 9.74 12.88C9.62 12.85 9.5 12.87 9.4 12.93L8.71 13.34C8.71 13.34 8.71 13.34 8.71 13.34L8.71 13.34L5.67 15.16C5.55 15.24 5.39 15.2 5.31 15.07C5.24 14.95 5.28 14.79 5.4 14.71L8.44 12.9C8.54 12.83 8.62 12.73 8.65 12.61C8.68 12.48 8.65 12.35 8.58 12.23C8.44 12.04 8.15 11.99 7.94 12.12L3.3 14.9C3.2 14.96 3.07 14.95 2.98 14.86C2.9 14.78 2.88 14.65 2.93 14.55L3.9 12.81C4 12.64 3.99 12.42 3.89 12.25L3.89 12.25Z" fill="#4CAF4F" fill-opacity="1.000000" fill-rule="nonzero"/>
	<path id="Vector" d="M5.35 13.06L7.67 11.67C8.03 11.45 8.48 11.48 8.79 11.71C8.87 11.77 8.95 11.85 9.01 11.94C9.03 11.97 9.06 12.01 9.08 12.05C9.14 12.18 9.17 12.32 9.18 12.45C9.3 12.39 9.44 12.35 9.58 12.34C9.6 12.34 9.61 12.34 9.63 12.34C9.71 12.34 9.79 12.35 9.87 12.37C9.92 12.38 9.97 12.4 10.01 12.42C10.2 12.5 10.37 12.64 10.48 12.82C10.59 13 10.63 13.21 10.61 13.41C10.61 13.46 10.6 13.51 10.59 13.57C10.56 13.66 10.53 13.75 10.48 13.84C10.4 13.95 10.3 14.06 10.19 14.14C10.31 14.21 10.41 14.3 10.5 14.42C10.51 14.44 10.52 14.45 10.53 14.47C10.6 14.59 10.64 14.71 10.66 14.83C10.67 14.9 10.68 14.96 10.67 15.03C10.67 15.09 10.66 15.16 10.64 15.22C10.61 15.34 10.57 15.44 10.5 15.54C10.42 15.65 10.32 15.75 10.19 15.83L10.19 15.83C10.31 15.9 10.42 15.99 10.5 16.11C10.51 16.13 10.52 16.14 10.53 16.16C10.61 16.29 10.66 16.44 10.67 16.59C10.67 16.6 10.67 16.61 10.67 16.62C10.68 16.72 10.67 16.81 10.64 16.91C10.58 17.16 10.42 17.38 10.2 17.51L5.55 20.3C4.69 20.82 3.69 21 2.74 20.8C1.78 20.6 0.98 20.05 0.5 19.25C-0.14 18.18 -0.17 16.95 0.4 15.91C0.51 15.7 0.64 15.5 0.8 15.32C0.84 15.26 0.88 15.21 0.92 15.15C0.94 15.12 0.97 15.09 0.99 15.06C1 15.04 1.02 15.01 1.03 15C1.11 14.85 2.34 12.64 2.65 12.07C2.7 11.99 2.73 11.94 2.73 11.94C2.89 11.65 3.19 11.48 3.51 11.48C3.65 11.48 3.8 11.52 3.94 11.59C4.1 11.69 4.24 11.82 4.34 11.98L4.34 11.98C4.43 12.14 4.48 12.32 4.49 12.49C4.49 12.56 4.49 12.63 4.48 12.7C4.46 12.83 4.42 12.95 4.36 13.07L4.26 13.24L3.87 13.95L4.56 13.53L5.35 13.06ZM7.9 12.14L4.95 13.91L4.83 13.98L4.39 14.24L4.05 14.45L3.82 14.59L3.3 14.9C3.2 14.96 3.07 14.95 2.98 14.86C2.9 14.78 2.88 14.65 2.93 14.55L3.2 14.08L3.23 14.01L3.36 13.78L3.55 13.43L3.87 12.87L3.9 12.81C3.91 12.79 3.92 12.76 3.93 12.74C3.99 12.58 3.98 12.4 3.89 12.25L3.89 12.25C3.84 12.17 3.77 12.1 3.68 12.05C3.65 12.03 3.61 12.02 3.57 12.01C3.42 11.99 3.26 12.05 3.19 12.19C3.14 12.27 3.1 12.35 3.06 12.42C3.04 12.46 3.01 12.51 2.99 12.55C2.59 13.27 2.3 13.8 2.08 14.19C2.04 14.26 2.01 14.32 1.97 14.37C1.71 14.85 1.57 15.09 1.5 15.21L1.5 15.21L1.5 15.22L1.5 15.22C1.49 15.26 1.49 15.26 1.35 15.46C1.3 15.52 1.25 15.59 1.2 15.65C1.1 15.77 1.01 15.9 0.93 16.03C0.37 16.95 0.37 18.02 0.95 18.98C1.35 19.66 2.03 20.12 2.84 20.29C3.66 20.46 4.53 20.3 5.29 19.85L7.54 18.49L9.87 17.1L9.93 17.06C10.03 17 10.11 16.9 10.14 16.78C10.17 16.66 10.15 16.54 10.08 16.43C10.07 16.41 10.06 16.4 10.05 16.38C9.91 16.2 9.65 16.15 9.45 16.27L9.39 16.31L9.29 16.37L7.69 17.33L7.16 17.65C7.15 17.65 7.13 17.66 7.12 17.67C7 17.71 6.87 17.66 6.8 17.56C6.74 17.44 6.76 17.31 6.85 17.22C6.87 17.21 6.88 17.2 6.89 17.2L7.42 16.88L9.18 15.82L9.86 15.41L9.93 15.38C9.95 15.36 9.98 15.34 10.01 15.31C10.07 15.26 10.11 15.18 10.14 15.09C10.17 14.97 10.15 14.85 10.08 14.74C10.07 14.73 10.06 14.71 10.05 14.7C9.91 14.52 9.65 14.46 9.45 14.58L9.39 14.62L9.29 14.68L6.94 16.09L6.42 16.4C6.4 16.41 6.39 16.42 6.38 16.42C6.26 16.47 6.12 16.43 6.06 16.31C5.99 16.2 6.02 16.06 6.11 15.98C6.12 15.97 6.13 15.96 6.15 15.96L6.68 15.64L8.95 14.27L9.1 14.19L9.1 14.19L9.18 14.14L9.26 14.09L9.26 14.09L9.81 13.76L9.87 13.72C9.91 13.7 9.95 13.66 9.99 13.62C10.03 13.57 10.06 13.51 10.08 13.44C10.11 13.32 10.09 13.19 10.03 13.09C9.97 12.98 9.86 12.91 9.74 12.88C9.68 12.86 9.6 12.86 9.54 12.87C9.49 12.89 9.44 12.9 9.4 12.93L9.34 12.97L8.71 13.34L8.71 13.34L8.71 13.34L6.2 14.85L5.67 15.16C5.66 15.17 5.65 15.18 5.63 15.18C5.51 15.23 5.38 15.18 5.31 15.07C5.25 14.96 5.27 14.83 5.36 14.75C5.37 14.73 5.39 14.72 5.4 14.71L5.93 14.4L8.27 12.99L8.35 12.95L8.44 12.9L8.44 12.89C8.54 12.83 8.62 12.73 8.65 12.61C8.66 12.55 8.67 12.48 8.65 12.42L8.65 12.42L8.65 12.42C8.65 12.38 8.64 12.35 8.62 12.31C8.61 12.29 8.59 12.26 8.58 12.23C8.44 12.04 8.15 11.99 7.94 12.12L7.9 12.14Z" fill="#4CAF4F" fill-opacity="1.000000" fill-rule="evenodd"/>
	<path id="Vector" d="M22.03 19.25C21.54 20.05 20.75 20.6 19.79 20.8C18.84 20.99 17.83 20.82 16.97 20.3L12.33 17.51C12.1 17.38 11.94 17.16 11.88 16.91C11.81 16.65 11.85 16.39 11.99 16.16C12.07 16.02 12.19 15.91 12.33 15.83L12.33 15.83C12.1 15.69 11.94 15.47 11.88 15.22C11.82 14.96 11.86 14.7 11.99 14.47C12.08 14.33 12.2 14.21 12.33 14.13C12.14 14 11.99 13.8 11.93 13.57C11.87 13.31 11.91 13.05 12.05 12.82C12.18 12.59 12.4 12.43 12.65 12.37C12.73 12.35 12.81 12.34 12.89 12.34C13.05 12.34 13.2 12.38 13.34 12.45C13.35 12.27 13.41 12.09 13.52 11.94C13.81 11.51 14.4 11.39 14.86 11.67L18.66 13.95L18.17 13.07C17.98 12.73 17.99 12.31 18.19 11.98C18.28 11.82 18.42 11.69 18.59 11.59C18.72 11.52 18.87 11.48 19.02 11.48C19.33 11.48 19.63 11.65 19.8 11.94C20.36 12.95 21.42 14.87 21.5 15C21.51 15.03 21.56 15.1 21.6 15.15C21.64 15.21 21.68 15.26 21.73 15.32C22.68 16.47 22.79 17.97 22.03 19.25L22.03 19.25ZM21.32 15.65C21.27 15.59 21.22 15.52 21.17 15.46C21.03 15.25 21.03 15.25 21.02 15.2C20.85 14.92 20.45 14.19 19.34 12.19C19.24 12.02 19.02 11.95 18.84 12.05C18.76 12.1 18.69 12.17 18.63 12.25C18.53 12.42 18.53 12.64 18.62 12.81L19.59 14.55C19.65 14.65 19.63 14.78 19.54 14.86C19.46 14.95 19.33 14.96 19.23 14.9L14.59 12.12C14.37 11.99 14.08 12.04 13.95 12.23C13.87 12.35 13.84 12.48 13.88 12.61C13.91 12.73 13.98 12.83 14.09 12.89C14.09 12.89 14.09 12.9 14.09 12.9L17.12 14.71C17.24 14.79 17.28 14.95 17.21 15.07C17.14 15.2 16.97 15.24 16.85 15.16L13.13 12.93C13.02 12.87 12.9 12.85 12.78 12.88C12.66 12.91 12.56 12.98 12.49 13.09C12.43 13.19 12.41 13.32 12.44 13.44C12.47 13.56 12.55 13.66 12.65 13.72L13.38 14.16L16.37 15.96C16.5 16.03 16.54 16.19 16.46 16.31C16.39 16.44 16.23 16.48 16.11 16.4L13.07 14.58C12.85 14.45 12.57 14.52 12.44 14.74C12.38 14.85 12.36 14.97 12.39 15.09C12.42 15.21 12.49 15.31 12.6 15.38L13.34 15.82L15.63 17.2C15.75 17.27 15.79 17.43 15.72 17.56C15.65 17.68 15.49 17.72 15.36 17.65L13.07 16.27C12.97 16.21 12.84 16.19 12.72 16.22C12.6 16.25 12.5 16.32 12.44 16.43C12.38 16.54 12.36 16.66 12.39 16.78C12.42 16.9 12.49 17 12.6 17.06L17.24 19.85C17.99 20.3 18.86 20.46 19.68 20.29C20.5 20.12 21.17 19.66 21.58 18.98C22.23 17.88 22.14 16.64 21.32 15.65L21.32 15.65Z" fill="#4CAF4F" fill-opacity="1.000000" fill-rule="nonzero"/>
	<path id="Vector" d="M22.03 19.25C21.59 19.98 20.89 20.5 20.05 20.74C19.96 20.76 19.88 20.78 19.79 20.8C18.84 20.99 17.83 20.82 16.97 20.3L12.33 17.51C12.1 17.38 11.94 17.16 11.88 16.91C11.85 16.8 11.84 16.7 11.85 16.59C11.86 16.44 11.91 16.29 11.99 16.16C12 16.14 12.01 16.13 12.02 16.11C12.1 15.99 12.21 15.9 12.33 15.83L12.33 15.83C12.21 15.75 12.1 15.65 12.02 15.54C11.96 15.44 11.91 15.34 11.88 15.22C11.86 15.16 11.85 15.09 11.85 15.03C11.85 14.96 11.85 14.89 11.86 14.82C11.88 14.7 11.93 14.58 11.99 14.47C12 14.45 12.01 14.43 12.03 14.42C12.11 14.3 12.22 14.2 12.33 14.13C12.22 14.05 12.12 13.95 12.05 13.84C12 13.75 11.96 13.66 11.93 13.57C11.92 13.52 11.91 13.46 11.91 13.41C11.89 13.21 11.94 13 12.05 12.82C12.16 12.64 12.32 12.5 12.51 12.42C12.56 12.4 12.6 12.38 12.65 12.37C12.73 12.35 12.81 12.34 12.89 12.34C12.91 12.34 12.93 12.34 12.94 12.34C13.08 12.35 13.22 12.39 13.34 12.45C13.35 12.32 13.38 12.18 13.45 12.05C13.47 12.01 13.49 11.97 13.52 11.94C13.58 11.85 13.65 11.77 13.73 11.71C14.05 11.48 14.49 11.45 14.86 11.67L17.17 13.06L17.96 13.53L18.66 13.95L18.27 13.24L18.17 13.07C18.07 12.89 18.02 12.69 18.03 12.49C18.04 12.32 18.09 12.14 18.19 11.98C18.28 11.82 18.42 11.69 18.59 11.59C18.72 11.52 18.87 11.48 19.02 11.48C19.33 11.48 19.63 11.65 19.8 11.94C20.24 12.74 21 14.12 21.34 14.71C21.42 14.87 21.48 14.98 21.5 15C21.51 15.03 21.56 15.1 21.6 15.15C21.64 15.21 21.68 15.26 21.73 15.32L21.73 15.32C22.41 16.14 22.66 17.15 22.47 18.12C22.39 18.5 22.24 18.88 22.03 19.25L22.03 19.25L22.03 19.25L22.03 19.25ZM21.58 18.98L21.58 18.98C21.31 19.42 20.94 19.76 20.49 20C20.24 20.13 19.97 20.23 19.68 20.29C18.86 20.46 17.99 20.3 17.24 19.85L14.98 18.49L12.66 17.1L12.6 17.06C12.49 17 12.42 16.9 12.39 16.78C12.36 16.66 12.38 16.54 12.44 16.43C12.45 16.41 12.46 16.4 12.47 16.38C12.53 16.3 12.62 16.24 12.72 16.22C12.84 16.19 12.97 16.21 13.07 16.27L13.13 16.31L13.23 16.37L14.83 17.33L15.36 17.65C15.38 17.65 15.39 17.66 15.41 17.67C15.52 17.71 15.65 17.66 15.72 17.56C15.79 17.44 15.76 17.3 15.67 17.22C15.66 17.21 15.64 17.2 15.63 17.2L15.1 16.88L13.74 16.06L13.34 15.82L12.66 15.41L12.6 15.38C12.57 15.36 12.54 15.34 12.52 15.31C12.45 15.25 12.41 15.18 12.39 15.09C12.36 14.97 12.38 14.85 12.44 14.74C12.45 14.73 12.46 14.71 12.47 14.7C12.61 14.52 12.87 14.46 13.07 14.58L13.13 14.62L13.23 14.68L15.58 16.09L16.11 16.4C16.12 16.41 16.13 16.42 16.15 16.42C16.26 16.47 16.4 16.43 16.46 16.31C16.53 16.2 16.51 16.06 16.41 15.98C16.4 15.97 16.39 15.96 16.37 15.96L15.85 15.64L13.75 14.38L13.38 14.16L12.71 13.76L12.65 13.72C12.61 13.7 12.57 13.66 12.54 13.62C12.49 13.57 12.46 13.51 12.44 13.44C12.41 13.32 12.43 13.19 12.49 13.09C12.56 12.98 12.66 12.91 12.78 12.88C12.85 12.86 12.92 12.86 12.99 12.87C13.04 12.88 13.08 12.9 13.13 12.93L13.19 12.97L13.82 13.34L13.85 13.37L14.22 13.59L16.32 14.85L16.85 15.16C16.86 15.17 16.88 15.18 16.89 15.18C17.01 15.23 17.14 15.18 17.21 15.07C17.28 14.96 17.25 14.83 17.16 14.74C17.15 14.73 17.13 14.72 17.12 14.71L16.59 14.4L14.25 12.99L14.17 12.94L14.09 12.9L14.09 12.89C13.98 12.83 13.91 12.73 13.88 12.61C13.85 12.51 13.86 12.41 13.9 12.31C13.91 12.29 13.93 12.26 13.95 12.23C14.06 12.07 14.29 12 14.5 12.08C14.52 12.08 14.54 12.09 14.56 12.1C14.57 12.11 14.58 12.11 14.59 12.12L14.62 12.14L14.64 12.15L14.65 12.15L17.57 13.91L17.69 13.98L18.13 14.24L18.47 14.45L18.7 14.59L19.23 14.9C19.33 14.96 19.46 14.95 19.54 14.86C19.62 14.79 19.64 14.68 19.6 14.58C19.6 14.57 19.59 14.56 19.59 14.55L19.29 14.01L19.16 13.78L18.97 13.43L18.65 12.86L18.62 12.81C18.61 12.79 18.6 12.76 18.59 12.74C18.53 12.58 18.55 12.4 18.63 12.25C18.69 12.17 18.76 12.1 18.84 12.05C19.02 11.95 19.24 12.02 19.34 12.19C19.38 12.27 19.42 12.35 19.46 12.42C19.89 13.2 20.21 13.77 20.45 14.19C20.76 14.75 20.93 15.04 21.02 15.2C21.03 15.25 21.03 15.25 21.17 15.46C21.22 15.52 21.27 15.59 21.32 15.65L21.32 15.65C21.98 16.44 22.17 17.4 21.88 18.32C21.85 18.4 21.82 18.47 21.79 18.55C21.73 18.7 21.66 18.84 21.58 18.98Z" fill="#4CAF4F" fill-opacity="1.000000" fill-rule="evenodd"/>
</svg>
