<svg width="22.533386" height="20.882141" viewBox="0 0 22.5334 20.8821" fill="none" xmlns="http://www.w3.org/2000/svg" xmlns:xlink="http://www.w3.org/1999/xlink">
	<desc>
			Created with Pixso.
	</desc>
	<defs/>
	<path id="Vector" d="M14.16 10.19C13.99 10.19 13.83 10.14 13.69 10.07L13.69 10.07C13.69 10.33 13.59 10.58 13.41 10.77C13.22 10.95 12.97 11.06 12.71 11.06C12.54 11.06 12.38 11.01 12.24 10.93C12.23 11.17 12.13 11.4 11.96 11.57C11.77 11.76 11.53 11.86 11.26 11.86C10.74 11.86 10.31 11.45 10.28 10.93C10.12 11.02 9.94 11.07 9.75 11.05C9.23 11.02 8.83 10.57 8.83 10.04L8.83 5.61L8.33 6.48C8.13 6.82 7.77 7.02 7.39 7.02C7.2 7.02 7.01 6.98 6.85 6.88C6.64 6.76 6.49 6.57 6.43 6.34C6.37 6.11 6.4 5.87 6.52 5.67C6.52 5.67 8.17 2.81 8.27 2.63C8.28 2.61 8.32 2.53 8.35 2.46C8.38 2.4 8.4 2.34 8.42 2.27C8.92 0.87 10.15 0 11.64 0C13.57 0 15.14 1.7 15.14 3.79L15.14 9.2C15.14 9.47 15.04 9.71 14.85 9.9C14.67 10.09 14.42 10.19 14.16 10.19L14.16 10.19ZM11.64 0.52C10.36 0.52 9.34 1.24 8.92 2.45C8.89 2.53 8.86 2.6 8.83 2.68C8.73 2.89 8.73 2.89 8.7 2.92L8.7 2.92C8.56 3.18 8.16 3.87 6.97 5.93C6.93 6.01 6.91 6.11 6.94 6.21C6.96 6.3 7.02 6.38 7.11 6.43C7.37 6.58 7.72 6.48 7.87 6.22L8.86 4.5C8.92 4.4 9.04 4.35 9.16 4.38C9.27 4.41 9.35 4.51 9.35 4.63L9.35 10.04C9.35 10.3 9.55 10.52 9.78 10.53C9.92 10.54 10.05 10.49 10.14 10.4C10.23 10.31 10.28 10.19 10.28 10.07L10.28 6.53C10.28 6.39 10.39 6.27 10.54 6.27C10.68 6.27 10.8 6.39 10.8 6.53L10.8 10.87C10.8 11.13 11.01 11.34 11.26 11.34C11.39 11.34 11.5 11.29 11.59 11.2C11.68 11.11 11.72 11 11.72 10.87L11.72 6.53C11.72 6.39 11.84 6.27 11.99 6.27C12.13 6.27 12.25 6.39 12.25 6.53L12.25 10.03L12.25 10.07C12.25 10.33 12.45 10.53 12.71 10.53C12.83 10.53 12.95 10.48 13.04 10.4C13.12 10.31 13.17 10.19 13.17 10.07L13.17 6.53C13.17 6.39 13.29 6.27 13.43 6.27C13.58 6.27 13.69 6.39 13.69 6.53L13.69 9.2C13.69 9.46 13.9 9.67 14.16 9.67C14.28 9.67 14.4 9.62 14.48 9.53C14.57 9.44 14.62 9.33 14.62 9.2L14.62 3.79C14.62 1.99 13.28 0.52 11.64 0.52L11.64 0.52Z" fill="#103E13" fill-opacity="1.000000" fill-rule="nonzero"/>
	<path id="Vector" d="M3.87 13.95L7.67 11.67C8.12 11.39 8.71 11.51 9.01 11.94C9.12 12.09 9.17 12.27 9.18 12.45C9.32 12.38 9.47 12.34 9.63 12.34C9.71 12.34 9.79 12.35 9.87 12.37C10.13 12.43 10.34 12.59 10.48 12.82C10.61 13.05 10.65 13.31 10.59 13.57C10.53 13.8 10.39 14 10.19 14.14C10.33 14.22 10.45 14.33 10.53 14.47C10.67 14.7 10.71 14.96 10.64 15.22C10.58 15.47 10.42 15.69 10.19 15.83L10.19 15.83C10.33 15.91 10.45 16.02 10.53 16.16C10.67 16.39 10.71 16.65 10.64 16.91C10.58 17.16 10.42 17.38 10.2 17.51L5.56 20.3C4.69 20.82 3.69 21 2.74 20.8C1.78 20.6 0.98 20.05 0.5 19.25C-0.27 17.97 -0.15 16.47 0.8 15.32C0.84 15.26 0.88 15.21 0.92 15.15C0.96 15.1 1.01 15.03 1.03 15C1.13 14.83 2.73 11.94 2.73 11.94C2.89 11.65 3.19 11.48 3.51 11.48C3.65 11.48 3.8 11.52 3.94 11.59C4.1 11.69 4.24 11.82 4.34 11.98C4.54 12.32 4.54 12.73 4.36 13.07L3.87 13.95ZM3.89 12.25C3.84 12.17 3.77 12.1 3.68 12.05C3.51 11.95 3.28 12.02 3.19 12.19C2.04 14.26 1.65 14.96 1.5 15.21L1.5 15.22C1.49 15.26 1.49 15.26 1.35 15.45C1.3 15.52 1.25 15.59 1.2 15.65C0.38 16.64 0.29 17.88 0.95 18.98C1.35 19.66 2.03 20.12 2.84 20.29C3.66 20.45 4.53 20.3 5.29 19.85L9.93 17.06C10.03 17 10.11 16.9 10.14 16.78C10.17 16.66 10.15 16.54 10.08 16.43C9.95 16.21 9.67 16.14 9.45 16.27L7.16 17.65C7.04 17.72 6.88 17.68 6.8 17.56C6.73 17.43 6.77 17.27 6.89 17.2L9.18 15.82L9.93 15.38C10.03 15.31 10.11 15.21 10.14 15.09C10.17 14.97 10.15 14.85 10.08 14.74C9.95 14.53 9.67 14.45 9.45 14.58L6.42 16.4C6.29 16.48 6.13 16.44 6.06 16.31C5.98 16.19 6.02 16.03 6.15 15.96L9.87 13.72C9.98 13.66 10.05 13.56 10.08 13.44C10.11 13.32 10.09 13.19 10.03 13.09C9.97 12.98 9.86 12.91 9.74 12.88C9.62 12.85 9.5 12.87 9.4 12.93L8.71 13.34C8.71 13.34 8.71 13.34 8.71 13.34L8.71 13.34L5.67 15.16C5.55 15.24 5.39 15.2 5.31 15.07C5.24 14.95 5.28 14.79 5.4 14.71L8.44 12.9C8.54 12.83 8.62 12.73 8.65 12.61C8.68 12.48 8.65 12.35 8.58 12.23C8.44 12.04 8.15 11.99 7.94 12.12L3.3 14.9C3.2 14.96 3.07 14.95 2.98 14.86C2.9 14.78 2.88 14.65 2.93 14.55L3.9 12.81C4 12.64 3.99 12.42 3.89 12.25L3.89 12.25Z" fill="#103E13" fill-opacity="1.000000" fill-rule="nonzero"/>
	<path id="Vector" d="M22.03 19.25C21.54 20.05 20.75 20.6 19.79 20.8C18.84 20.99 17.83 20.82 16.97 20.3L12.33 17.51C12.1 17.38 11.94 17.16 11.88 16.91C11.81 16.65 11.85 16.39 11.99 16.16C12.07 16.02 12.19 15.91 12.33 15.83L12.33 15.83C12.1 15.69 11.94 15.47 11.88 15.22C11.82 14.96 11.86 14.7 11.99 14.47C12.08 14.33 12.2 14.21 12.33 14.13C12.14 14 11.99 13.8 11.93 13.57C11.87 13.31 11.91 13.05 12.05 12.82C12.18 12.59 12.4 12.43 12.65 12.37C12.73 12.35 12.81 12.34 12.89 12.34C13.05 12.34 13.2 12.38 13.34 12.45C13.35 12.27 13.41 12.09 13.52 11.94C13.81 11.51 14.4 11.39 14.86 11.67L18.66 13.95L18.17 13.07C17.98 12.73 17.99 12.31 18.19 11.98C18.28 11.82 18.42 11.69 18.59 11.59C18.72 11.52 18.87 11.48 19.02 11.48C19.33 11.48 19.63 11.65 19.8 11.94C20.36 12.95 21.42 14.87 21.5 15C21.51 15.03 21.56 15.1 21.6 15.15C21.64 15.21 21.68 15.26 21.73 15.32C22.68 16.47 22.79 17.97 22.03 19.25L22.03 19.25ZM21.32 15.65C21.27 15.59 21.22 15.52 21.17 15.46C21.03 15.25 21.03 15.25 21.02 15.2C20.85 14.92 20.45 14.19 19.34 12.19C19.24 12.02 19.02 11.95 18.84 12.05C18.76 12.1 18.69 12.17 18.63 12.25C18.53 12.42 18.53 12.64 18.62 12.81L19.59 14.55C19.65 14.65 19.63 14.78 19.54 14.86C19.46 14.95 19.33 14.96 19.23 14.9L14.59 12.12C14.37 11.99 14.08 12.04 13.95 12.23C13.87 12.35 13.84 12.48 13.88 12.61C13.91 12.73 13.98 12.83 14.09 12.89C14.09 12.89 14.09 12.9 14.09 12.9L17.12 14.71C17.24 14.79 17.28 14.95 17.21 15.07C17.14 15.2 16.97 15.24 16.85 15.16L13.13 12.93C13.02 12.87 12.9 12.85 12.78 12.88C12.66 12.91 12.56 12.98 12.49 13.09C12.43 13.19 12.41 13.32 12.44 13.44C12.47 13.56 12.55 13.66 12.65 13.72L13.38 14.16L16.38 15.96C16.5 16.03 16.54 16.19 16.46 16.31C16.39 16.44 16.23 16.48 16.11 16.4L13.07 14.58C12.85 14.45 12.57 14.52 12.44 14.74C12.38 14.85 12.36 14.97 12.39 15.09C12.42 15.21 12.49 15.31 12.6 15.38L13.34 15.82L15.63 17.2C15.75 17.27 15.79 17.43 15.72 17.56C15.65 17.68 15.49 17.72 15.36 17.65L13.07 16.27C12.97 16.21 12.84 16.19 12.72 16.22C12.6 16.25 12.5 16.32 12.44 16.43C12.38 16.54 12.36 16.66 12.39 16.78C12.42 16.9 12.49 17 12.6 17.06L17.24 19.85C17.99 20.3 18.86 20.46 19.68 20.29C20.5 20.12 21.17 19.66 21.58 18.98C22.23 17.88 22.14 16.64 21.32 15.65L21.32 15.65Z" fill="#103E13" fill-opacity="1.000000" fill-rule="nonzero"/>
</svg>
